# xmcd CD database file
#
# Track frame offsets:
#	150
#	19470
#	45985
#
# Disc length: 4440 seconds
#
# Revision: 0
# Processed by: cddbd v1.5.1PL2 Copyright (c) Steve Scherf et al.
# Submitted via: CDex 1.51
#
DISCID=1c115603
DTITLE=Norah Jones - Sleepless Nights
DYEAR=1900
DGENRE=Jazz
TTITLE0=Sleepless Nights
TTITLE1=Those Sweet Words
TTITLE2=
EXTD=
EXTT0=
EXTT1=
EXTT2=
PLAYORDER=
